<?xml version="1.0" encoding="UTF-8" standalone="no"?><svg xmlns="http://www.w3.org/2000/svg" xmlns:xlink="http://www.w3.org/1999/xlink" contentStyleType="text/css" height="284px" preserveAspectRatio="none" style="width:547px;height:284px;background:#FFFFFF;" version="1.1" viewBox="0 0 547 284" width="547px" zoomAndPan="magnify"><defs/><g><!--MD5=[086f7c7a070c36f92c4da32e24a93304]
class FurnitureFactory--><g id="elem_FurnitureFactory"><rect codeLine="2" fill="#F1F1F1" height="105.2038" id="FurnitureFactory" rx="2.5" ry="2.5" style="stroke:#181818;stroke-width:0.5;" width="249" x="149" y="7"/><ellipse cx="216.25" cy="23" fill="#B4A7E5" rx="11" ry="11" style="stroke:#181818;stroke-width:1.0;"/><path d="M218.3438,29.5 L213.4375,29.5 L213.4375,28.125 L214.8594,27.8125 L214.8594,18.5313 L213.4375,18.1875 L213.4375,16.8281 L218.3438,16.8281 L218.3438,18.1875 L216.9219,18.5313 L216.9219,27.8125 L218.3438,28.125 L218.3438,29.5 Z " fill="#000000"/><text fill="#000000" font-family="sans-serif" font-size="14" font-style="italic" lengthAdjust="spacing" textLength="106" x="236.75" y="28.432">FurnitureFactory</text><line style="stroke:#181818;stroke-width:0.5;" x1="150" x2="397" y1="39" y2="39"/><line style="stroke:#181818;stroke-width:0.5;" x1="150" x2="397" y1="47" y2="47"/><ellipse cx="160" cy="62.034" fill="#84BE84" rx="3" ry="3" style="stroke:#038048;stroke-width:1.0;"/><text fill="#000000" font-family="sans-serif" font-size="14" lengthAdjust="spacing" textLength="129" x="169" y="65.9659">createChair(): IChair</text><ellipse cx="160" cy="81.1019" fill="#84BE84" rx="3" ry="3" style="stroke:#038048;stroke-width:1.0;"/><text fill="#000000" font-family="sans-serif" font-size="14" lengthAdjust="spacing" textLength="223" x="169" y="85.0339">createCoffeeTable(): ICoffeeTable</text><ellipse cx="160" cy="100.1698" fill="#84BE84" rx="3" ry="3" style="stroke:#038048;stroke-width:1.0;"/><text fill="#000000" font-family="sans-serif" font-size="14" lengthAdjust="spacing" textLength="167" x="169" y="104.1018">createCoffeeSofa(): ISofa</text></g><!--MD5=[c5bc9da8d878329f557265bc29077acb]
class VictorianFurnitureFactory--><g id="elem_VictorianFurnitureFactory"><rect codeLine="8" fill="#F1F1F1" height="105.2038" id="VictorianFurnitureFactory" rx="2.5" ry="2.5" style="stroke:#181818;stroke-width:0.5;" width="249" x="7" y="172"/><ellipse cx="44.95" cy="188" fill="#ADD1B2" rx="11" ry="11" style="stroke:#181818;stroke-width:1.0;"/><path d="M45.0594,183.2813 Q44.1375,183.2813 43.4031,183.5938 Q42.6844,183.9063 42.1844,184.5 Q41.6844,185.0781 41.4031,185.9531 Q41.1375,186.8281 41.1375,187.9219 Q41.1375,189.3594 41.575,190.4063 Q42.0281,191.4531 42.8719,192 Q43.7313,192.5469 45.0438,192.5469 Q45.825,192.5469 46.5125,192.4219 Q47.2156,192.2813 48.2156,191.9688 L48.2156,193.8438 Q47.3563,194.1719 46.5906,194.2969 Q45.8406,194.4219 44.825,194.4219 Q42.9031,194.4219 41.5906,193.625 Q40.2938,192.8125 39.6375,191.3438 Q38.9813,189.8594 38.9813,187.8906 Q38.9813,186.4688 39.3719,185.2969 Q39.7781,184.1094 40.5594,183.2344 Q41.3406,182.3594 42.4813,181.8906 Q43.6219,181.4063 45.0906,181.4063 Q46.0438,181.4063 46.9344,181.6094 Q47.8406,181.7969 48.7781,182.2656 L47.95,184.0469 Q47.1688,183.6719 46.5125,183.4844 Q45.8563,183.2813 45.0594,183.2813 Z " fill="#000000"/><text fill="#000000" font-family="sans-serif" font-size="14" lengthAdjust="spacing" textLength="166" x="64.05" y="193.432">VictorianFurnitureFactory</text><line style="stroke:#181818;stroke-width:0.5;" x1="8" x2="255" y1="204" y2="204"/><line style="stroke:#181818;stroke-width:0.5;" x1="8" x2="255" y1="212" y2="212"/><ellipse cx="18" cy="227.034" fill="#84BE84" rx="3" ry="3" style="stroke:#038048;stroke-width:1.0;"/><text fill="#000000" font-family="sans-serif" font-size="14" lengthAdjust="spacing" textLength="129" x="27" y="230.9659">createChair(): IChair</text><ellipse cx="18" cy="246.1019" fill="#84BE84" rx="3" ry="3" style="stroke:#038048;stroke-width:1.0;"/><text fill="#000000" font-family="sans-serif" font-size="14" lengthAdjust="spacing" textLength="223" x="27" y="250.0339">createCoffeeTable(): ICoffeeTable</text><ellipse cx="18" cy="265.1698" fill="#84BE84" rx="3" ry="3" style="stroke:#038048;stroke-width:1.0;"/><text fill="#000000" font-family="sans-serif" font-size="14" lengthAdjust="spacing" textLength="167" x="27" y="269.1018">createCoffeeSofa(): ISofa</text></g><!--MD5=[a9cb816f64f806186a61ef766fedfaba]
class ModernFurnitureFactory--><g id="elem_ModernFurnitureFactory"><rect codeLine="14" fill="#F1F1F1" height="105.2038" id="ModernFurnitureFactory" rx="2.5" ry="2.5" style="stroke:#181818;stroke-width:0.5;" width="249" x="291" y="172"/><ellipse cx="331.65" cy="188" fill="#ADD1B2" rx="11" ry="11" style="stroke:#181818;stroke-width:1.0;"/><path d="M331.7594,183.2813 Q330.8375,183.2813 330.1031,183.5938 Q329.3844,183.9063 328.8844,184.5 Q328.3844,185.0781 328.1031,185.9531 Q327.8375,186.8281 327.8375,187.9219 Q327.8375,189.3594 328.275,190.4063 Q328.7281,191.4531 329.5719,192 Q330.4313,192.5469 331.7438,192.5469 Q332.525,192.5469 333.2125,192.4219 Q333.9156,192.2813 334.9156,191.9688 L334.9156,193.8438 Q334.0563,194.1719 333.2906,194.2969 Q332.5406,194.4219 331.525,194.4219 Q329.6031,194.4219 328.2906,193.625 Q326.9938,192.8125 326.3375,191.3438 Q325.6813,189.8594 325.6813,187.8906 Q325.6813,186.4688 326.0719,185.2969 Q326.4781,184.1094 327.2594,183.2344 Q328.0406,182.3594 329.1813,181.8906 Q330.3219,181.4063 331.7906,181.4063 Q332.7438,181.4063 333.6344,181.6094 Q334.5406,181.7969 335.4781,182.2656 L334.65,184.0469 Q333.8688,183.6719 333.2125,183.4844 Q332.5563,183.2813 331.7594,183.2813 Z " fill="#000000"/><text fill="#000000" font-family="sans-serif" font-size="14" lengthAdjust="spacing" textLength="160" x="351.35" y="193.432">ModernFurnitureFactory</text><line style="stroke:#181818;stroke-width:0.5;" x1="292" x2="539" y1="204" y2="204"/><line style="stroke:#181818;stroke-width:0.5;" x1="292" x2="539" y1="212" y2="212"/><ellipse cx="302" cy="227.034" fill="#84BE84" rx="3" ry="3" style="stroke:#038048;stroke-width:1.0;"/><text fill="#000000" font-family="sans-serif" font-size="14" lengthAdjust="spacing" textLength="129" x="311" y="230.9659">createChair(): IChair</text><ellipse cx="302" cy="246.1019" fill="#84BE84" rx="3" ry="3" style="stroke:#038048;stroke-width:1.0;"/><text fill="#000000" font-family="sans-serif" font-size="14" lengthAdjust="spacing" textLength="223" x="311" y="250.0339">createCoffeeTable(): ICoffeeTable</text><ellipse cx="302" cy="265.1698" fill="#84BE84" rx="3" ry="3" style="stroke:#038048;stroke-width:1.0;"/><text fill="#000000" font-family="sans-serif" font-size="14" lengthAdjust="spacing" textLength="167" x="311" y="269.1018">createCoffeeSofa(): ISofa</text></g><!--MD5=[fef9338e7e49f7548701db90e5f22cdb]
reverse link FurnitureFactory to VictorianFurnitureFactory--><g id="link_FurnitureFactory_VictorianFurnitureFactory"><path codeLine="20" d="M215.32,127.28 C202.33,142.2 188.74,157.79 176.38,171.98 " fill="none" id="FurnitureFactory-backto-VictorianFurnitureFactory" style="stroke:#181818;stroke-width:1.0;"/><polygon fill="none" points="210.15,122.56,228.57,112.07,220.71,131.75,210.15,122.56" style="stroke:#181818;stroke-width:1.0;"/></g><!--MD5=[6a991800bd1ac299c61554a96edc39d2]
reverse link FurnitureFactory to ModernFurnitureFactory--><g id="link_FurnitureFactory_ModernFurnitureFactory"><path codeLine="21" d="M331.68,127.28 C344.67,142.2 358.26,157.79 370.62,171.98 " fill="none" id="FurnitureFactory-backto-ModernFurnitureFactory" style="stroke:#181818;stroke-width:1.0;"/><polygon fill="none" points="326.29,131.75,318.43,112.07,336.85,122.56,326.29,131.75" style="stroke:#181818;stroke-width:1.0;"/></g><!--MD5=[150a7ec0d4fca8c0faeeae90c6e5ef1e]
@startuml

interface FurnitureFactory {
    +createChair(): IChair
    +createCoffeeTable(): ICoffeeTable
    +createCoffeeSofa(): ISofa
}

class VictorianFurnitureFactory {
    +createChair(): IChair
    +createCoffeeTable(): ICoffeeTable
    +createCoffeeSofa(): ISofa
}

class ModernFurnitureFactory {
    +createChair(): IChair
    +createCoffeeTable(): ICoffeeTable
    +createCoffeeSofa(): ISofa
}

FurnitureFactory <|- - VictorianFurnitureFactory
FurnitureFactory <|- - ModernFurnitureFactory

@enduml

PlantUML version 1.2022.7(Mon Aug 22 18:01:30 BST 2022)
(GPL source distribution)
Java Runtime: OpenJDK Runtime Environment
JVM: OpenJDK 64-Bit Server VM
Default Encoding: UTF-8
Language: en
Country: GB
--></g></svg>