<?xml version="1.0" encoding="UTF-8" standalone="no"?><svg xmlns="http://www.w3.org/2000/svg" xmlns:xlink="http://www.w3.org/1999/xlink" contentStyleType="text/css" height="468px" preserveAspectRatio="none" style="width:596px;height:468px;background:#FFFFFF;" version="1.1" viewBox="0 0 596 468" width="596px" zoomAndPan="magnify"><defs/><g><!--MD5=[a8dc8aefce085dae70bec15e302cfec9]
class Builder--><g id="elem_Builder"><rect codeLine="2" fill="#F1F1F1" height="105.2038" id="Builder" rx="2.5" ry="2.5" style="stroke:#181818;stroke-width:0.5;" width="139" x="219.93" y="7"/><ellipse cx="262.83" cy="23" fill="#B4A7E5" rx="11" ry="11" style="stroke:#181818;stroke-width:1.0;"/><path d="M264.9238,29.5 L260.0175,29.5 L260.0175,28.125 L261.4394,27.8125 L261.4394,18.5313 L260.0175,18.1875 L260.0175,16.8281 L264.9238,16.8281 L264.9238,18.1875 L263.5019,18.5313 L263.5019,27.8125 L264.9238,28.125 L264.9238,29.5 Z " fill="#000000"/><text fill="#000000" font-family="sans-serif" font-size="14" font-style="italic" lengthAdjust="spacing" textLength="45" x="283.03" y="28.432">Builder</text><line style="stroke:#181818;stroke-width:0.5;" x1="220.93" x2="357.93" y1="39" y2="39"/><line style="stroke:#181818;stroke-width:0.5;" x1="220.93" x2="357.93" y1="47" y2="47"/><ellipse cx="230.93" cy="62.034" fill="#84BE84" rx="3" ry="3" style="stroke:#038048;stroke-width:1.0;"/><text fill="#000000" font-family="sans-serif" font-size="14" lengthAdjust="spacing" textLength="77" x="239.93" y="65.9659">reset(): void</text><ellipse cx="230.93" cy="81.1019" fill="#84BE84" rx="3" ry="3" style="stroke:#038048;stroke-width:1.0;"/><text fill="#000000" font-family="sans-serif" font-size="14" lengthAdjust="spacing" textLength="112" x="239.93" y="85.0339">buildStepA(): void</text><ellipse cx="230.93" cy="100.1698" fill="#84BE84" rx="3" ry="3" style="stroke:#038048;stroke-width:1.0;"/><text fill="#000000" font-family="sans-serif" font-size="14" lengthAdjust="spacing" textLength="113" x="239.93" y="104.1018">buildStepB(): void</text></g><!--MD5=[57adcbfcd00175f9b7abe25398e7de0c]
class Director--><g id="elem_Director"><rect codeLine="8" fill="#F1F1F1" height="124.2717" id="Director" rx="2.5" ry="2.5" style="stroke:#181818;stroke-width:0.5;" width="204" x="187.43" y="172"/><ellipse cx="258.18" cy="188" fill="#ADD1B2" rx="11" ry="11" style="stroke:#181818;stroke-width:1.0;"/><path d="M258.2894,183.2813 Q257.3675,183.2813 256.6331,183.5938 Q255.9144,183.9063 255.4144,184.5 Q254.9144,185.0781 254.6331,185.9531 Q254.3675,186.8281 254.3675,187.9219 Q254.3675,189.3594 254.805,190.4063 Q255.2581,191.4531 256.1019,192 Q256.9613,192.5469 258.2738,192.5469 Q259.055,192.5469 259.7425,192.4219 Q260.4456,192.2813 261.4456,191.9688 L261.4456,193.8438 Q260.5863,194.1719 259.8206,194.2969 Q259.0706,194.4219 258.055,194.4219 Q256.1331,194.4219 254.8206,193.625 Q253.5238,192.8125 252.8675,191.3438 Q252.2113,189.8594 252.2113,187.8906 Q252.2113,186.4688 252.6019,185.2969 Q253.0081,184.1094 253.7894,183.2344 Q254.5706,182.3594 255.7113,181.8906 Q256.8519,181.4063 258.3206,181.4063 Q259.2738,181.4063 260.1644,181.6094 Q261.0706,181.7969 262.0081,182.2656 L261.18,184.0469 Q260.3988,183.6719 259.7425,183.4844 Q259.0863,183.2813 258.2894,183.2813 Z " fill="#000000"/><text fill="#000000" font-family="sans-serif" font-size="14" lengthAdjust="spacing" textLength="54" x="278.68" y="193.432">Director</text><line style="stroke:#181818;stroke-width:0.5;" x1="188.43" x2="390.43" y1="204" y2="204"/><rect fill="none" height="6" style="stroke:#C82930;stroke-width:1.0;" width="6" x="195.43" y="216.034"/><text fill="#000000" font-family="sans-serif" font-size="14" lengthAdjust="spacing" textLength="95" x="207.43" y="222.9659">builder: Builder</text><line style="stroke:#181818;stroke-width:0.5;" x1="188.43" x2="390.43" y1="231.0679" y2="231.0679"/><ellipse cx="198.43" cy="246.1019" fill="#84BE84" rx="3" ry="3" style="stroke:#038048;stroke-width:1.0;"/><text fill="#000000" font-family="sans-serif" font-size="14" lengthAdjust="spacing" textLength="106" x="207.43" y="250.0339">Director(builder)</text><ellipse cx="198.43" cy="265.1698" fill="#84BE84" rx="3" ry="3" style="stroke:#038048;stroke-width:1.0;"/><text fill="#000000" font-family="sans-serif" font-size="14" lengthAdjust="spacing" textLength="178" x="207.43" y="269.1018">changeBuilder(builder): void</text><ellipse cx="198.43" cy="284.2377" fill="#84BE84" rx="3" ry="3" style="stroke:#038048;stroke-width:1.0;"/><text fill="#000000" font-family="sans-serif" font-size="14" lengthAdjust="spacing" textLength="108" x="207.43" y="288.1697">make(type): void</text></g><!--MD5=[85fa41478d080d6079ace2c1a9cb0308]
class ConcreteBuilder1--><g id="elem_ConcreteBuilder1"><rect codeLine="15" fill="#F1F1F1" height="105.2038" id="ConcreteBuilder1" rx="2.5" ry="2.5" style="stroke:#181818;stroke-width:0.5;" width="145" x="33.93" y="356"/><ellipse cx="48.93" cy="372" fill="#ADD1B2" rx="11" ry="11" style="stroke:#181818;stroke-width:1.0;"/><path d="M49.0394,367.2813 Q48.1175,367.2813 47.3831,367.5938 Q46.6644,367.9063 46.1644,368.5 Q45.6644,369.0781 45.3831,369.9531 Q45.1175,370.8281 45.1175,371.9219 Q45.1175,373.3594 45.555,374.4063 Q46.0081,375.4531 46.8519,376 Q47.7113,376.5469 49.0238,376.5469 Q49.805,376.5469 50.4925,376.4219 Q51.1956,376.2813 52.1956,375.9688 L52.1956,377.8438 Q51.3363,378.1719 50.5706,378.2969 Q49.8206,378.4219 48.805,378.4219 Q46.8831,378.4219 45.5706,377.625 Q44.2738,376.8125 43.6175,375.3438 Q42.9613,373.8594 42.9613,371.8906 Q42.9613,370.4688 43.3519,369.2969 Q43.7581,368.1094 44.5394,367.2344 Q45.3206,366.3594 46.4613,365.8906 Q47.6019,365.4063 49.0706,365.4063 Q50.0238,365.4063 50.9144,365.6094 Q51.8206,365.7969 52.7581,366.2656 L51.93,368.0469 Q51.1488,367.6719 50.4925,367.4844 Q49.8363,367.2813 49.0394,367.2813 Z " fill="#000000"/><text fill="#000000" font-family="sans-serif" font-size="14" lengthAdjust="spacing" textLength="113" x="62.93" y="377.432">ConcreteBuilder1</text><line style="stroke:#181818;stroke-width:0.5;" x1="34.93" x2="177.93" y1="388" y2="388"/><line style="stroke:#181818;stroke-width:0.5;" x1="34.93" x2="177.93" y1="396" y2="396"/><ellipse cx="44.93" cy="411.034" fill="#84BE84" rx="3" ry="3" style="stroke:#038048;stroke-width:1.0;"/><text fill="#000000" font-family="sans-serif" font-size="14" lengthAdjust="spacing" textLength="77" x="53.93" y="414.9659">reset(): void</text><ellipse cx="44.93" cy="430.1019" fill="#84BE84" rx="3" ry="3" style="stroke:#038048;stroke-width:1.0;"/><text fill="#000000" font-family="sans-serif" font-size="14" lengthAdjust="spacing" textLength="112" x="53.93" y="434.0339">buildStepA(): void</text><ellipse cx="44.93" cy="449.1698" fill="#84BE84" rx="3" ry="3" style="stroke:#038048;stroke-width:1.0;"/><text fill="#000000" font-family="sans-serif" font-size="14" lengthAdjust="spacing" textLength="113" x="53.93" y="453.1018">buildStepB(): void</text></g><!--MD5=[315d5bcb02b2f9a65cde410a9ce0750f]
class ConcreteBuilder2--><g id="elem_ConcreteBuilder2"><rect codeLine="21" fill="#F1F1F1" height="105.2038" id="ConcreteBuilder2" rx="2.5" ry="2.5" style="stroke:#181818;stroke-width:0.5;" width="145" x="371.93" y="356"/><ellipse cx="386.93" cy="372" fill="#ADD1B2" rx="11" ry="11" style="stroke:#181818;stroke-width:1.0;"/><path d="M387.0394,367.2813 Q386.1175,367.2813 385.3831,367.5938 Q384.6644,367.9063 384.1644,368.5 Q383.6644,369.0781 383.3831,369.9531 Q383.1175,370.8281 383.1175,371.9219 Q383.1175,373.3594 383.555,374.4063 Q384.0081,375.4531 384.8519,376 Q385.7113,376.5469 387.0238,376.5469 Q387.805,376.5469 388.4925,376.4219 Q389.1956,376.2813 390.1956,375.9688 L390.1956,377.8438 Q389.3363,378.1719 388.5706,378.2969 Q387.8206,378.4219 386.805,378.4219 Q384.8831,378.4219 383.5706,377.625 Q382.2738,376.8125 381.6175,375.3438 Q380.9613,373.8594 380.9613,371.8906 Q380.9613,370.4688 381.3519,369.2969 Q381.7581,368.1094 382.5394,367.2344 Q383.3206,366.3594 384.4613,365.8906 Q385.6019,365.4063 387.0706,365.4063 Q388.0238,365.4063 388.9144,365.6094 Q389.8206,365.7969 390.7581,366.2656 L389.93,368.0469 Q389.1488,367.6719 388.4925,367.4844 Q387.8363,367.2813 387.0394,367.2813 Z " fill="#000000"/><text fill="#000000" font-family="sans-serif" font-size="14" lengthAdjust="spacing" textLength="113" x="400.93" y="377.432">ConcreteBuilder2</text><line style="stroke:#181818;stroke-width:0.5;" x1="372.93" x2="515.93" y1="388" y2="388"/><line style="stroke:#181818;stroke-width:0.5;" x1="372.93" x2="515.93" y1="396" y2="396"/><ellipse cx="382.93" cy="411.034" fill="#84BE84" rx="3" ry="3" style="stroke:#038048;stroke-width:1.0;"/><text fill="#000000" font-family="sans-serif" font-size="14" lengthAdjust="spacing" textLength="77" x="391.93" y="414.9659">reset(): void</text><ellipse cx="382.93" cy="430.1019" fill="#84BE84" rx="3" ry="3" style="stroke:#038048;stroke-width:1.0;"/><text fill="#000000" font-family="sans-serif" font-size="14" lengthAdjust="spacing" textLength="112" x="391.93" y="434.0339">buildStepA(): void</text><ellipse cx="382.93" cy="449.1698" fill="#84BE84" rx="3" ry="3" style="stroke:#038048;stroke-width:1.0;"/><text fill="#000000" font-family="sans-serif" font-size="14" lengthAdjust="spacing" textLength="113" x="391.93" y="453.1018">buildStepB(): void</text></g><!--MD5=[8e7a1e2c127632e55953e5d276da737c]
class Product1--><g id="elem_Product1"><rect codeLine="27" fill="#F1F1F1" height="48" id="Product1" rx="2.5" ry="2.5" style="stroke:#181818;stroke-width:0.5;" width="92" x="60.43" y="210"/><ellipse cx="75.43" cy="226" fill="#ADD1B2" rx="11" ry="11" style="stroke:#181818;stroke-width:1.0;"/><path d="M75.5394,221.2813 Q74.6175,221.2813 73.8831,221.5938 Q73.1644,221.9063 72.6644,222.5 Q72.1644,223.0781 71.8831,223.9531 Q71.6175,224.8281 71.6175,225.9219 Q71.6175,227.3594 72.055,228.4063 Q72.5081,229.4531 73.3519,230 Q74.2112,230.5469 75.5237,230.5469 Q76.305,230.5469 76.9925,230.4219 Q77.6956,230.2813 78.6956,229.9688 L78.6956,231.8438 Q77.8362,232.1719 77.0706,232.2969 Q76.3206,232.4219 75.305,232.4219 Q73.3831,232.4219 72.0706,231.625 Q70.7737,230.8125 70.1175,229.3438 Q69.4612,227.8594 69.4612,225.8906 Q69.4612,224.4688 69.8519,223.2969 Q70.2581,222.1094 71.0394,221.2344 Q71.8206,220.3594 72.9612,219.8906 Q74.1019,219.4063 75.5706,219.4063 Q76.5237,219.4063 77.4144,219.6094 Q78.3206,219.7969 79.2581,220.2656 L78.43,222.0469 Q77.6487,221.6719 76.9925,221.4844 Q76.3362,221.2813 75.5394,221.2813 Z " fill="#000000"/><text fill="#000000" font-family="sans-serif" font-size="14" lengthAdjust="spacing" textLength="60" x="89.43" y="231.432">Product1</text><line style="stroke:#181818;stroke-width:0.5;" x1="61.43" x2="151.43" y1="242" y2="242"/><line style="stroke:#181818;stroke-width:0.5;" x1="61.43" x2="151.43" y1="250" y2="250"/></g><!--MD5=[5ad3aa4a315e298f1358d64ee39c6b1e]
class Product2--><g id="elem_Product2"><rect codeLine="28" fill="#F1F1F1" height="48" id="Product2" rx="2.5" ry="2.5" style="stroke:#181818;stroke-width:0.5;" width="92" x="497.43" y="210"/><ellipse cx="512.43" cy="226" fill="#ADD1B2" rx="11" ry="11" style="stroke:#181818;stroke-width:1.0;"/><path d="M512.5394,221.2813 Q511.6175,221.2813 510.8831,221.5938 Q510.1644,221.9063 509.6644,222.5 Q509.1644,223.0781 508.8831,223.9531 Q508.6175,224.8281 508.6175,225.9219 Q508.6175,227.3594 509.055,228.4063 Q509.5081,229.4531 510.3519,230 Q511.2113,230.5469 512.5238,230.5469 Q513.305,230.5469 513.9925,230.4219 Q514.6956,230.2813 515.6956,229.9688 L515.6956,231.8438 Q514.8363,232.1719 514.0706,232.2969 Q513.3206,232.4219 512.305,232.4219 Q510.3831,232.4219 509.0706,231.625 Q507.7738,230.8125 507.1175,229.3438 Q506.4613,227.8594 506.4613,225.8906 Q506.4613,224.4688 506.8519,223.2969 Q507.2581,222.1094 508.0394,221.2344 Q508.8206,220.3594 509.9613,219.8906 Q511.1019,219.4063 512.5706,219.4063 Q513.5238,219.4063 514.4144,219.6094 Q515.3206,219.7969 516.2581,220.2656 L515.43,222.0469 Q514.6488,221.6719 513.9925,221.4844 Q513.3363,221.2813 512.5394,221.2813 Z " fill="#000000"/><text fill="#000000" font-family="sans-serif" font-size="14" lengthAdjust="spacing" textLength="60" x="526.43" y="231.432">Product2</text><line style="stroke:#181818;stroke-width:0.5;" x1="498.43" x2="588.43" y1="242" y2="242"/><line style="stroke:#181818;stroke-width:0.5;" x1="498.43" x2="588.43" y1="250" y2="250"/></g><!--MD5=[a8c6a3547a3455f0717a0bf79573894d]
reverse link Builder to Director--><g id="link_Builder_Director"><path codeLine="30" d="M289.43,117.6 C289.43,135 289.43,154.2 289.43,171.86 " fill="none" id="Builder-backto-Director" style="stroke:#181818;stroke-width:1.0;"/><polygon fill="#181818" points="289.43,112.26,285.43,121.26,289.43,117.26,293.43,121.26,289.43,112.26" style="stroke:#181818;stroke-width:1.0;"/></g><!--MD5=[a44e1dce393fa756babc8d565f89f60a]
reverse link Director to ConcreteBuilder1--><g id="link_Director_ConcreteBuilder1"><path codeLine="31" d="M220.74,299.75 C201.05,318.31 179.85,338.29 161.12,355.94 " fill="none" id="Director-backto-ConcreteBuilder1" style="stroke:#181818;stroke-width:1.0;"/><polygon fill="#181818" points="224.65,296.06,215.3611,299.3337,221.0157,299.494,220.8555,305.1485,224.65,296.06" style="stroke:#181818;stroke-width:1.0;"/></g><!--MD5=[f832c40314c0cc83c76a6720ebbfb339]
reverse link Director to ConcreteBuilder2--><g id="link_Director_ConcreteBuilder2"><path codeLine="32" d="M348.23,300.43 C364.68,318.75 382.34,338.4 397.98,355.8 " fill="none" id="Director-backto-ConcreteBuilder2" style="stroke:#181818;stroke-width:1.0;"/><polygon fill="#181818" points="344.51,296.3,347.5396,305.6713,347.8477,300.0228,353.4962,300.3309,344.51,296.3" style="stroke:#181818;stroke-width:1.0;"/></g><!--MD5=[33d2d9e23560d25fc14134e0c361ad4e]
reverse link Builder to ConcreteBuilder1--><g id="link_Builder_ConcreteBuilder1"><path codeLine="33" d="M200.24,75.63 C144.58,90.18 77.11,118.29 42.43,172 C6,228.41 39.21,305.25 69.8,355.59 " fill="none" id="Builder-backto-ConcreteBuilder1" style="stroke:#181818;stroke-width:1.0;"/><polygon fill="none" points="198.67,68.81,219.75,70.95,201.94,82.42,198.67,68.81" style="stroke:#181818;stroke-width:1.0;"/></g><!--MD5=[ba03da65603dcfc50964d8bcf060c9f1]
reverse link Builder to ConcreteBuilder2--><g id="link_Builder_ConcreteBuilder2"><path codeLine="34" d="M373.77,124.72 C387.62,138.87 400.38,154.82 409.43,172 C439.87,229.78 446.06,305.95 446.35,355.79 " fill="none" id="Builder-backto-ConcreteBuilder2" style="stroke:#181818;stroke-width:1.0;"/><polygon fill="none" points="368.68,129.53,359.06,110.65,378.35,119.41,368.68,129.53" style="stroke:#181818;stroke-width:1.0;"/></g><!--MD5=[301c6a61d1a2205f91632e7c702af668]
reverse link Product1 to ConcreteBuilder1--><g id="link_Product1_ConcreteBuilder1"><path codeLine="35" d="M106.43,263.43 C106.43,288.51 106.43,325.69 106.43,356 " fill="none" id="Product1-backto-ConcreteBuilder1" style="stroke:#181818;stroke-width:1.0;"/><polygon fill="#181818" points="106.43,258.26,102.43,267.26,106.43,263.26,110.43,267.26,106.43,258.26" style="stroke:#181818;stroke-width:1.0;"/></g><!--MD5=[2f6333021d427432c0d8b8731f8b8015]
reverse link Product2 to ConcreteBuilder2--><g id="link_Product2_ConcreteBuilder2"><path codeLine="36" d="M527.47,262.8 C513.08,287.89 491.53,325.44 473.99,356 " fill="none" id="Product2-backto-ConcreteBuilder2" style="stroke:#181818;stroke-width:1.0;"/><polygon fill="#181818" points="530.08,258.26,522.1377,264.084,527.5962,262.5995,529.0808,268.058,530.08,258.26" style="stroke:#181818;stroke-width:1.0;"/></g><!--MD5=[cd6ee028d4fd951dddb86f0bb9da1fee]
@startuml

interface Builder {
    +reset(): void
    +buildStepA(): void
    +buildStepB(): void
}

class Director {
    -builder: Builder
    +Director(builder)
    +changeBuilder(builder): void
    +make(type): void
}

class ConcreteBuilder1 {
    +reset(): void
    +buildStepA(): void
    +buildStepB(): void
}

class ConcreteBuilder2 {
    +reset(): void
    +buildStepA(): void
    +buildStepB(): void
}

class Product1
class Product2

Builder <- - Director
Director <- - ConcreteBuilder1
Director <- - ConcreteBuilder2
Builder <|- - ConcreteBuilder1
Builder <|- - ConcreteBuilder2
Product1 <- - ConcreteBuilder1
Product2 <- - ConcreteBuilder2

@enduml

PlantUML version 1.2022.7(Mon Aug 22 18:01:30 BST 2022)
(GPL source distribution)
Java Runtime: OpenJDK Runtime Environment
JVM: OpenJDK 64-Bit Server VM
Default Encoding: UTF-8
Language: en
Country: GB
--></g></svg>