<?xml version="1.0" encoding="UTF-8" standalone="no"?><svg xmlns="http://www.w3.org/2000/svg" xmlns:xlink="http://www.w3.org/1999/xlink" contentStyleType="text/css" height="191px" preserveAspectRatio="none" style="width:523px;height:191px;background:#FFFFFF;" version="1.1" viewBox="0 0 523 191" width="523px" zoomAndPan="magnify"><defs/><g><!--MD5=[5005bba8c6d1dda988b0bcc8eba409f6]
class House--><g id="elem_House"><rect codeLine="2" fill="#F1F1F1" height="67.0679" id="House" rx="2.5" ry="2.5" style="stroke:#181818;stroke-width:0.5;" width="509" x="7" y="7"/><ellipse cx="236.25" cy="23" fill="#ADD1B2" rx="11" ry="11" style="stroke:#181818;stroke-width:1.0;"/><path d="M236.3594,18.2813 Q235.4375,18.2813 234.7031,18.5938 Q233.9844,18.9063 233.4844,19.5 Q232.9844,20.0781 232.7031,20.9531 Q232.4375,21.8281 232.4375,22.9219 Q232.4375,24.3594 232.875,25.4063 Q233.3281,26.4531 234.1719,27 Q235.0313,27.5469 236.3438,27.5469 Q237.125,27.5469 237.8125,27.4219 Q238.5156,27.2813 239.5156,26.9688 L239.5156,28.8438 Q238.6563,29.1719 237.8906,29.2969 Q237.1406,29.4219 236.125,29.4219 Q234.2031,29.4219 232.8906,28.625 Q231.5938,27.8125 230.9375,26.3438 Q230.2813,24.8594 230.2813,22.8906 Q230.2813,21.4688 230.6719,20.2969 Q231.0781,19.1094 231.8594,18.2344 Q232.6406,17.3594 233.7813,16.8906 Q234.9219,16.4063 236.3906,16.4063 Q237.3438,16.4063 238.2344,16.6094 Q239.1406,16.7969 240.0781,17.2656 L239.25,19.0469 Q238.4688,18.6719 237.8125,18.4844 Q237.1563,18.2813 236.3594,18.2813 Z " fill="#000000"/><text fill="#000000" font-family="sans-serif" font-size="14" lengthAdjust="spacing" textLength="42" x="256.75" y="28.432">House</text><line style="stroke:#181818;stroke-width:0.5;" x1="8" x2="515" y1="39" y2="39"/><line style="stroke:#181818;stroke-width:0.5;" x1="8" x2="515" y1="47" y2="47"/><ellipse cx="18" cy="62.034" fill="#84BE84" rx="3" ry="3" style="stroke:#038048;stroke-width:1.0;"/><text fill="#000000" font-family="sans-serif" font-size="14" lengthAdjust="spacing" textLength="483" x="27" y="65.9659">House(height:int, width:int, depth: int, hasChimney: bool, hasGarage: bool)</text></g><g id="elem_HouseWithChimney"><rect fill="#F1F1F1" height="50.1358" style="stroke:#181818;stroke-width:0.5;" width="215" x="29" y="134"/><text fill="#000000" font-family="sans-serif" font-size="14" lengthAdjust="spacing" textLength="128" x="72.5" y="150.9659">HouseWithChimney</text><line style="stroke:#181818;stroke-width:0.5;" x1="30" x2="243" y1="157.0679" y2="157.0679"/><ellipse cx="40" cy="172.1019" fill="#84BE84" rx="3" ry="3" style="stroke:#038048;stroke-width:1.0;"/><text fill="#000000" font-family="sans-serif" font-size="14" lengthAdjust="spacing" textLength="189" x="49" y="176.0339">House(30, 30, 30, true, false)</text></g><g id="elem_HouseWithGarage"><rect fill="#F1F1F1" height="50.1358" style="stroke:#181818;stroke-width:0.5;" width="215" x="279" y="134"/><text fill="#000000" font-family="sans-serif" font-size="14" lengthAdjust="spacing" textLength="119" x="327" y="150.9659">HouseWithGarage</text><line style="stroke:#181818;stroke-width:0.5;" x1="280" x2="493" y1="157.0679" y2="157.0679"/><ellipse cx="290" cy="172.1019" fill="#84BE84" rx="3" ry="3" style="stroke:#038048;stroke-width:1.0;"/><text fill="#000000" font-family="sans-serif" font-size="14" lengthAdjust="spacing" textLength="189" x="299" y="176.0339">House(30, 30, 30, false, true)</text></g><!--MD5=[4f2d792482f5f8a0a79e8f6127d68bef]
reverse link House to HouseWithChimney--><g id="link_House_HouseWithChimney"><path codeLine="14" d="M211.64,87.97 C194.73,103.73 176.53,120.69 162.28,133.98 " fill="none" id="House-backto-HouseWithChimney" style="stroke:#181818;stroke-width:1.0;"/><polygon fill="none" points="206.94,82.78,226.35,74.26,216.49,93.02,206.94,82.78" style="stroke:#181818;stroke-width:1.0;"/></g><!--MD5=[f9dd0d6f0675252cdeb459e0605b48cd]
reverse link House to HouseWithGarage--><g id="link_House_HouseWithGarage"><path codeLine="15" d="M311.36,87.97 C328.27,103.73 346.47,120.69 360.72,133.98 " fill="none" id="House-backto-HouseWithGarage" style="stroke:#181818;stroke-width:1.0;"/><polygon fill="none" points="306.51,93.02,296.65,74.26,316.06,82.78,306.51,93.02" style="stroke:#181818;stroke-width:1.0;"/></g><!--MD5=[9827ebae14ea9d03ce8392017557124e]
@startuml

class House {
    +House(height:int, width:int, depth: int, hasChimney: bool, hasGarage: bool)
}

object HouseWithChimney {
    +House(30, 30, 30, true, false)
}

object HouseWithGarage {
    +House(30, 30, 30, false, true)
}

House <|- - HouseWithChimney
House <|- - HouseWithGarage

@enduml

PlantUML version 1.2022.7(Mon Aug 22 18:01:30 BST 2022)
(GPL source distribution)
Java Runtime: OpenJDK Runtime Environment
JVM: OpenJDK 64-Bit Server VM
Default Encoding: UTF-8
Language: en
Country: GB
--></g></svg>