<?xml version="1.0" encoding="UTF-8" standalone="no"?><svg xmlns="http://www.w3.org/2000/svg" xmlns:xlink="http://www.w3.org/1999/xlink" contentStyleType="text/css" height="208px" preserveAspectRatio="none" style="width:799px;height:208px;background:#FFFFFF;" version="1.1" viewBox="0 0 799 208" width="799px" zoomAndPan="magnify"><defs/><g><!--MD5=[2c589014e840926a718801db2289e0a7]
class Creator--><g id="elem_Creator"><rect codeLine="2" fill="#F1F1F1" height="67.0679" id="Creator" rx="2.5" ry="2.5" style="stroke:#181818;stroke-width:0.5;" width="188" x="119" y="7"/><ellipse cx="184.75" cy="23" fill="#B4A7E5" rx="11" ry="11" style="stroke:#181818;stroke-width:1.0;"/><path d="M186.8438,29.5 L181.9375,29.5 L181.9375,28.125 L183.3594,27.8125 L183.3594,18.5313 L181.9375,18.1875 L181.9375,16.8281 L186.8438,16.8281 L186.8438,18.1875 L185.4219,18.5313 L185.4219,27.8125 L186.8438,28.125 L186.8438,29.5 Z " fill="#000000"/><text fill="#000000" font-family="sans-serif" font-size="14" font-style="italic" lengthAdjust="spacing" textLength="48" x="205.25" y="28.432">Creator</text><line style="stroke:#181818;stroke-width:0.5;" x1="120" x2="306" y1="39" y2="39"/><line style="stroke:#181818;stroke-width:0.5;" x1="120" x2="306" y1="47" y2="47"/><ellipse cx="130" cy="62.034" fill="#84BE84" rx="3" ry="3" style="stroke:#038048;stroke-width:1.0;"/><text fill="#000000" font-family="sans-serif" font-size="14" lengthAdjust="spacing" textLength="162" x="139" y="65.9659">createProduct(): Product</text></g><!--MD5=[6c609a9adc44db3b4cb8c6bc8eec83d0]
class ConcreteCreator1--><g id="elem_ConcreteCreator1"><rect codeLine="6" fill="#F1F1F1" height="67.0679" id="ConcreteCreator1" rx="2.5" ry="2.5" style="stroke:#181818;stroke-width:0.5;" width="188" x="230" y="134"/><ellipse cx="262.1" cy="150" fill="#ADD1B2" rx="11" ry="11" style="stroke:#181818;stroke-width:1.0;"/><path d="M262.2094,145.2813 Q261.2875,145.2813 260.5531,145.5938 Q259.8344,145.9063 259.3344,146.5 Q258.8344,147.0781 258.5531,147.9531 Q258.2875,148.8281 258.2875,149.9219 Q258.2875,151.3594 258.725,152.4063 Q259.1781,153.4531 260.0219,154 Q260.8813,154.5469 262.1938,154.5469 Q262.975,154.5469 263.6625,154.4219 Q264.3656,154.2813 265.3656,153.9688 L265.3656,155.8438 Q264.5063,156.1719 263.7406,156.2969 Q262.9906,156.4219 261.975,156.4219 Q260.0531,156.4219 258.7406,155.625 Q257.4438,154.8125 256.7875,153.3438 Q256.1313,151.8594 256.1313,149.8906 Q256.1313,148.4688 256.5219,147.2969 Q256.9281,146.1094 257.7094,145.2344 Q258.4906,144.3594 259.6313,143.8906 Q260.7719,143.4063 262.2406,143.4063 Q263.1938,143.4063 264.0844,143.6094 Q264.9906,143.7969 265.9281,144.2656 L265.1,146.0469 Q264.3188,145.6719 263.6625,145.4844 Q263.0063,145.2813 262.2094,145.2813 Z " fill="#000000"/><text fill="#000000" font-family="sans-serif" font-size="14" lengthAdjust="spacing" textLength="118" x="279.9" y="155.432">ConcreteCreator1</text><line style="stroke:#181818;stroke-width:0.5;" x1="231" x2="417" y1="166" y2="166"/><line style="stroke:#181818;stroke-width:0.5;" x1="231" x2="417" y1="174" y2="174"/><ellipse cx="241" cy="189.034" fill="#84BE84" rx="3" ry="3" style="stroke:#038048;stroke-width:1.0;"/><text fill="#000000" font-family="sans-serif" font-size="14" lengthAdjust="spacing" textLength="162" x="250" y="192.9659">createProduct(): Product</text></g><!--MD5=[194b55b1969cc9c47fdba3da1b5dd1ef]
class ConcreteCreator2--><g id="elem_ConcreteCreator2"><rect codeLine="10" fill="#F1F1F1" height="67.0679" id="ConcreteCreator2" rx="2.5" ry="2.5" style="stroke:#181818;stroke-width:0.5;" width="188" x="7" y="134"/><ellipse cx="39.1" cy="150" fill="#ADD1B2" rx="11" ry="11" style="stroke:#181818;stroke-width:1.0;"/><path d="M39.2094,145.2813 Q38.2875,145.2813 37.5531,145.5938 Q36.8344,145.9063 36.3344,146.5 Q35.8344,147.0781 35.5531,147.9531 Q35.2875,148.8281 35.2875,149.9219 Q35.2875,151.3594 35.725,152.4063 Q36.1781,153.4531 37.0219,154 Q37.8813,154.5469 39.1938,154.5469 Q39.975,154.5469 40.6625,154.4219 Q41.3656,154.2813 42.3656,153.9688 L42.3656,155.8438 Q41.5063,156.1719 40.7406,156.2969 Q39.9906,156.4219 38.975,156.4219 Q37.0531,156.4219 35.7406,155.625 Q34.4438,154.8125 33.7875,153.3438 Q33.1313,151.8594 33.1313,149.8906 Q33.1313,148.4688 33.5219,147.2969 Q33.9281,146.1094 34.7094,145.2344 Q35.4906,144.3594 36.6313,143.8906 Q37.7719,143.4063 39.2406,143.4063 Q40.1938,143.4063 41.0844,143.6094 Q41.9906,143.7969 42.9281,144.2656 L42.1,146.0469 Q41.3188,145.6719 40.6625,145.4844 Q40.0063,145.2813 39.2094,145.2813 Z " fill="#000000"/><text fill="#000000" font-family="sans-serif" font-size="14" lengthAdjust="spacing" textLength="118" x="56.9" y="155.432">ConcreteCreator2</text><line style="stroke:#181818;stroke-width:0.5;" x1="8" x2="194" y1="166" y2="166"/><line style="stroke:#181818;stroke-width:0.5;" x1="8" x2="194" y1="174" y2="174"/><ellipse cx="18" cy="189.034" fill="#84BE84" rx="3" ry="3" style="stroke:#038048;stroke-width:1.0;"/><text fill="#000000" font-family="sans-serif" font-size="14" lengthAdjust="spacing" textLength="162" x="27" y="192.9659">createProduct(): Product</text></g><!--MD5=[72136138052d025cffdce3c22fbd185f]
class Product--><g id="elem_Product"><rect codeLine="14" fill="#F1F1F1" height="48" id="Product" rx="2.5" ry="2.5" style="stroke:#181818;stroke-width:0.5;" width="81" x="581.5" y="16.5"/><ellipse cx="596.5" cy="32.5" fill="#B4A7E5" rx="11" ry="11" style="stroke:#181818;stroke-width:1.0;"/><path d="M598.5938,39 L593.6875,39 L593.6875,37.625 L595.1094,37.3125 L595.1094,28.0313 L593.6875,27.6875 L593.6875,26.3281 L598.5938,26.3281 L598.5938,27.6875 L597.1719,28.0313 L597.1719,37.3125 L598.5938,37.625 L598.5938,39 Z " fill="#000000"/><text fill="#000000" font-family="sans-serif" font-size="14" font-style="italic" lengthAdjust="spacing" textLength="49" x="610.5" y="37.932">Product</text><line style="stroke:#181818;stroke-width:0.5;" x1="582.5" x2="661.5" y1="48.5" y2="48.5"/><line style="stroke:#181818;stroke-width:0.5;" x1="582.5" x2="661.5" y1="56.5" y2="56.5"/></g><!--MD5=[9e1f217a44db012abe7b922da54c0dd9]
class ConcreteProduct1--><g id="elem_ConcreteProduct1"><rect codeLine="16" fill="#F1F1F1" height="48" id="ConcreteProduct1" rx="2.5" ry="2.5" style="stroke:#181818;stroke-width:0.5;" width="152" x="453" y="143.5"/><ellipse cx="468" cy="159.5" fill="#ADD1B2" rx="11" ry="11" style="stroke:#181818;stroke-width:1.0;"/><path d="M468.1094,154.7813 Q467.1875,154.7813 466.4531,155.0938 Q465.7344,155.4063 465.2344,156 Q464.7344,156.5781 464.4531,157.4531 Q464.1875,158.3281 464.1875,159.4219 Q464.1875,160.8594 464.625,161.9063 Q465.0781,162.9531 465.9219,163.5 Q466.7813,164.0469 468.0938,164.0469 Q468.875,164.0469 469.5625,163.9219 Q470.2656,163.7813 471.2656,163.4688 L471.2656,165.3438 Q470.4063,165.6719 469.6406,165.7969 Q468.8906,165.9219 467.875,165.9219 Q465.9531,165.9219 464.6406,165.125 Q463.3438,164.3125 462.6875,162.8438 Q462.0313,161.3594 462.0313,159.3906 Q462.0313,157.9688 462.4219,156.7969 Q462.8281,155.6094 463.6094,154.7344 Q464.3906,153.8594 465.5313,153.3906 Q466.6719,152.9063 468.1406,152.9063 Q469.0938,152.9063 469.9844,153.1094 Q470.8906,153.2969 471.8281,153.7656 L471,155.5469 Q470.2188,155.1719 469.5625,154.9844 Q468.9063,154.7813 468.1094,154.7813 Z " fill="#000000"/><text fill="#000000" font-family="sans-serif" font-size="14" lengthAdjust="spacing" textLength="120" x="482" y="164.932">ConcreteProduct1</text><line style="stroke:#181818;stroke-width:0.5;" x1="454" x2="604" y1="175.5" y2="175.5"/><line style="stroke:#181818;stroke-width:0.5;" x1="454" x2="604" y1="183.5" y2="183.5"/></g><!--MD5=[7c2a1f0b305d4b6d9d46d9f16110c367]
class ConcreteProduct2--><g id="elem_ConcreteProduct2"><rect codeLine="17" fill="#F1F1F1" height="48" id="ConcreteProduct2" rx="2.5" ry="2.5" style="stroke:#181818;stroke-width:0.5;" width="152" x="640" y="143.5"/><ellipse cx="655" cy="159.5" fill="#ADD1B2" rx="11" ry="11" style="stroke:#181818;stroke-width:1.0;"/><path d="M655.1094,154.7813 Q654.1875,154.7813 653.4531,155.0938 Q652.7344,155.4063 652.2344,156 Q651.7344,156.5781 651.4531,157.4531 Q651.1875,158.3281 651.1875,159.4219 Q651.1875,160.8594 651.625,161.9063 Q652.0781,162.9531 652.9219,163.5 Q653.7813,164.0469 655.0938,164.0469 Q655.875,164.0469 656.5625,163.9219 Q657.2656,163.7813 658.2656,163.4688 L658.2656,165.3438 Q657.4063,165.6719 656.6406,165.7969 Q655.8906,165.9219 654.875,165.9219 Q652.9531,165.9219 651.6406,165.125 Q650.3438,164.3125 649.6875,162.8438 Q649.0313,161.3594 649.0313,159.3906 Q649.0313,157.9688 649.4219,156.7969 Q649.8281,155.6094 650.6094,154.7344 Q651.3906,153.8594 652.5313,153.3906 Q653.6719,152.9063 655.1406,152.9063 Q656.0938,152.9063 656.9844,153.1094 Q657.8906,153.2969 658.8281,153.7656 L658,155.5469 Q657.2188,155.1719 656.5625,154.9844 Q655.9063,154.7813 655.1094,154.7813 Z " fill="#000000"/><text fill="#000000" font-family="sans-serif" font-size="14" lengthAdjust="spacing" textLength="120" x="669" y="164.932">ConcreteProduct2</text><line style="stroke:#181818;stroke-width:0.5;" x1="641" x2="791" y1="175.5" y2="175.5"/><line style="stroke:#181818;stroke-width:0.5;" x1="641" x2="791" y1="183.5" y2="183.5"/></g><!--MD5=[4718f0aff278693ef7824cadff599223]
reverse link Creator to ConcreteCreator1--><g id="link_Creator_ConcreteCreator1"><path codeLine="19" d="M255.16,88.98 C268.41,103.9 282.75,120.04 294.88,133.71 " fill="none" id="Creator-backto-ConcreteCreator1" style="stroke:#181818;stroke-width:1.0;"/><polygon fill="none" points="249.92,93.62,241.87,74.02,260.39,84.32,249.92,93.62" style="stroke:#181818;stroke-width:1.0;"/></g><!--MD5=[5fd5a0bef2266ecd7a485cb803f826c4]
reverse link Creator to ConcreteCreator2--><g id="link_Creator_ConcreteCreator2"><path codeLine="20" d="M170.46,88.98 C157.09,103.9 142.63,120.04 130.38,133.71 " fill="none" id="Creator-backto-ConcreteCreator2" style="stroke:#181818;stroke-width:1.0;"/><polygon fill="none" points="165.31,84.24,183.87,74.02,175.73,93.58,165.31,84.24" style="stroke:#181818;stroke-width:1.0;"/></g><!--MD5=[3e631a4e6bb7e408c66afd34fbd92e8d]
reverse link Product to ConcreteProduct1--><g id="link_Product_ConcreteProduct1"><path codeLine="21" d="M592.73,80.85 C577.42,101.42 559.21,125.9 546.18,143.41 " fill="none" id="Product-backto-ConcreteProduct1" style="stroke:#181818;stroke-width:1.0;"/><polygon fill="none" points="587.17,76.59,604.73,64.72,598.4,84.94,587.17,76.59" style="stroke:#181818;stroke-width:1.0;"/></g><!--MD5=[74652e2bb7add63ff19c45362af0f0c8]
reverse link Product to ConcreteProduct2--><g id="link_Product_ConcreteProduct2"><path codeLine="22" d="M651.59,80.85 C667.06,101.42 685.47,125.9 698.63,143.41 " fill="none" id="Product-backto-ConcreteProduct2" style="stroke:#181818;stroke-width:1.0;"/><polygon fill="none" points="645.89,84.91,639.46,64.72,657.08,76.5,645.89,84.91" style="stroke:#181818;stroke-width:1.0;"/></g><!--MD5=[03ac88ce5f547ac3942475553c9fde92]
link ConcreteCreator1 to ConcreteProduct1--><g id="link_ConcreteCreator1_ConcreteProduct1"><path codeLine="23" d="M418.09,167.5 C427.93,167.5 437.77,167.5 447.61,167.5 " fill="none" id="ConcreteCreator1-to-ConcreteProduct1" style="stroke:#181818;stroke-width:1.0;"/><polygon fill="#181818" points="452.75,167.5,443.75,163.5,447.75,167.5,443.75,171.5,452.75,167.5" style="stroke:#181818;stroke-width:1.0;"/></g><!--MD5=[94e203e60d6d95a5757d4ab6fe897ad3]
link ConcreteCreator2 to ConcreteProduct2--><g id="link_ConcreteCreator2_ConcreteProduct2"><path codeLine="24" d="M154.88,133.99 C177.12,122.03 203.69,110.03 229.5,104 C310.87,84.99 524.77,82.46 605.5,104 C632.24,111.14 659.24,126.46 679.85,140.27 " fill="none" id="ConcreteCreator2-to-ConcreteProduct2" style="stroke:#181818;stroke-width:1.0;"/><polygon fill="#181818" points="684.15,143.19,678.953,134.824,680.014,140.3804,674.4576,141.4415,684.15,143.19" style="stroke:#181818;stroke-width:1.0;"/></g><!--MD5=[780bb0f90c0915d9277142ef889b19e6]
@startuml

interface Creator {
    +createProduct(): Product
}

class ConcreteCreator1 {
    +createProduct(): Product
}

class ConcreteCreator2 {
    +createProduct(): Product
}

interface Product

class ConcreteProduct1
class ConcreteProduct2

Creator <|- - ConcreteCreator1
Creator <|- - ConcreteCreator2
Product <|- - ConcreteProduct1
Product <|- - ConcreteProduct2
ConcreteCreator1 -> ConcreteProduct1
ConcreteCreator2 -> ConcreteProduct2

@enduml

PlantUML version 1.2022.7(Mon Aug 22 18:01:30 BST 2022)
(GPL source distribution)
Java Runtime: OpenJDK Runtime Environment
JVM: OpenJDK 64-Bit Server VM
Default Encoding: UTF-8
Language: en
Country: GB
--></g></svg>